# xmcd
#
# Track frame offsets:
#	150
#	13587
#	27139
#	44719
#	57306
#	71868
#	89486
#	105700
#	118868
#	133186
#	143674
#	158082
#	171458
#	188590
#	202467
#
# Disc length: 2897 seconds
#
# Revision: 1
# Processed by: cddbd v1.5.2PL0 Copyright (c) Steve Scherf et al.
# Submitted via: audiograbber 1.83.01
#
DISCID=e50b4f0f
DTITLE=Chartbuster - CB 90149
DYEAR=1900
DGENRE=
TTITLE0=Strait, George - The Chair
TTITLE1=Strait, George - Fool Hearted Memory
TTITLE2=Strait, George - I've Come To Expect It From You
TTITLE3=Strait, George - The Fireman
TTITLE4=Strait, George - Ocean Front Property
TTITLE5=Strait, George - Famous Last Words Of A Fool
TTITLE6=Strait, George - Baby's Gotten Good At Goodbye
TTITLE7=Strait, George - If I Know Me
TTITLE8=Strait, George - You Know Me Better Than That
TTITLE9=Strait, George - Right Or Wrong
TTITLE10=Strait, George - A Fire I can't Put Out
TTITLE11=Strait, George - When Did You Stop Loving Me
TTITLE12=Strait, George - Chill Of An Early Fall
TTITLE13=Strait, George - Lovebug
TTITLE14=Strait, George - Easy Come Easy Go
EXTD=
EXTT0=
EXTT1=
EXTT2=
EXTT3=
EXTT4=
EXTT5=
EXTT6=
EXTT7=
EXTT8=
EXTT9=
EXTT10=
EXTT11=
EXTT12=
EXTT13=
EXTT14=
PLAYORDER=
